<?xml version="1.0" encoding="utf-8"?>
<!-- Generator: Adobe Illustrator 15.0.0, SVG Export Plug-In . SVG Version: 6.00 Build 0)  -->
<!DOCTYPE svg PUBLIC "-//W3C//DTD SVG 1.1//EN" "http://www.w3.org/Graphics/SVG/1.1/DTD/svg11.dtd">
<svg version="1.1" id="图层_1" xmlns="http://www.w3.org/2000/svg" xmlns:xlink="http://www.w3.org/1999/xlink" x="0px" y="0px"
	 width="46px" height="32.333px" viewBox="0 0 46 32.333" enable-background="new 0 0 46 32.333" xml:space="preserve">
<g id="图层_1_1_">
</g>
<g id="图层_6_x5F_复制_2">
</g>
<g id="图层_16">
</g>
<g id="图层_17_x5F_复制_3">
</g>
<g id="图层_15">
</g>
<linearGradient id="SVGID_1_" gradientUnits="userSpaceOnUse" x1="220.9639" y1="-326.9487" x2="220.9639" y2="-269.1126" gradientTransform="matrix(1 0 0 -1 -197.5996 -287.6572)">
	<stop  offset="0" style="stop-color:#FFFFFF"/>
	<stop  offset="0.9928" style="stop-color:#000000"/>
</linearGradient>
<rect x="1.009" y="0.666" fill="url(#SVGID_1_)" stroke="#515151" stroke-width="0.25" width="44.709" height="31"/>
<rect x="6.565" y="9.708" fill="#131313" width="33.66" height="16.373"/>
<rect x="17.555" y="3.653" fill="#131313" width="11.625" height="4.76"/>
<g>
	<rect x="19.394" y="5.819" fill="#131313" width="12.504" height="4.76"/>
</g>
<g>
	<rect x="5.261" y="3.583" fill="#131313" width="7.703" height="4.975"/>
</g>
<g>
	<rect x="33.691" y="3.545" fill="#131313" width="7.703" height="4.975"/>
</g>
<rect x="14.804" y="6.046" fill="#131313" width="11.894" height="4.759"/>
<rect x="6.565" y="9.708" fill="#A5A5A5" width="8.239" height="0.262"/>
<linearGradient id="SVGID_2_" gradientUnits="userSpaceOnUse" x1="-1762.2251" y1="-2351.27" x2="-1777.6255" y2="-2351.7854" gradientTransform="matrix(-1 0 0 -1 -1735.1816 -2341.7334)">
	<stop  offset="0" style="stop-color:#FFFFFF"/>
	<stop  offset="1" style="stop-color:#000000"/>
</linearGradient>
<rect x="31.902" y="9.708" fill="url(#SVGID_2_)" width="8.322" height="0.262"/>
<linearGradient id="SVGID_3_" gradientUnits="userSpaceOnUse" x1="-1764.4751" y1="-2345.6162" x2="-1752.7356" y2="-2345.4436" gradientTransform="matrix(-1 0 0 -1 -1735.1816 -2341.7334)">
	<stop  offset="0" style="stop-color:#111111"/>
	<stop  offset="0.9879" style="stop-color:#D4D4D4"/>
</linearGradient>
<rect x="17.555" y="3.666" fill="url(#SVGID_3_)" width="11.738" height="0.262"/>
<linearGradient id="SVGID_4_" gradientUnits="userSpaceOnUse" x1="-1749.0835" y1="-2347.6602" x2="-1755.6671" y2="-2347.6274" gradientTransform="matrix(-1 0 0 -1 -1735.1816 -2341.7334)">
	<stop  offset="0" style="stop-color:#FFFFFF"/>
	<stop  offset="1" style="stop-color:#000000"/>
</linearGradient>
<rect x="14.804" y="5.785" fill="url(#SVGID_4_)" width="2.751" height="0.261"/>
<rect x="17.496" y="3.666" fill="#A5A5A5" width="0.225" height="2.381"/>
<rect x="14.804" y="5.785" fill="#EAEAEA" width="0.224" height="4.185"/>
<rect x="31.634" y="5.819" fill="#424142" width="0.256" height="4.148"/>
<rect x="29.068" y="3.666" fill="#424142" width="0.229" height="2.366"/>
<linearGradient id="SVGID_5_" gradientUnits="userSpaceOnUse" x1="-2233.9536" y1="-2330.6328" x2="-2227.9031" y2="-2330.5437" gradientTransform="matrix(-0.7889 -0.0079 0.0101 -0.9999 -1706.7367 -2342.0825)">
	<stop  offset="0" style="stop-color:#111111"/>
	<stop  offset="0.9879" style="stop-color:#D4D4D4"/>
</linearGradient>
<polygon fill="url(#SVGID_5_)" points="29.07,5.775 31.898,5.803 31.896,6.064 29.068,6.036 "/>
<rect x="6.565" y="15.331" fill="#C6C6C6" width="0.32" height="3.473"/>
<rect x="39.947" y="15.331" fill="#C6C6C6" width="0.271" height="3.473"/>
<g>
	
		<linearGradient id="SVGID_6_" gradientUnits="userSpaceOnUse" x1="1513.0967" y1="2397.0259" x2="1508.4063" y2="2392.8335" gradientTransform="matrix(1 0 0 1 -1485.5977 -2372.9414)">
		<stop  offset="0" style="stop-color:#A57723"/>
		<stop  offset="1" style="stop-color:#39220C"/>
	</linearGradient>
	<rect x="24.592" y="17.896" fill="url(#SVGID_6_)" width="1.123" height="8.185"/>
	
		<linearGradient id="SVGID_7_" gradientUnits="userSpaceOnUse" x1="1500.7285" y1="2397.0923" x2="1495.8882" y2="2392.7656" gradientTransform="matrix(1 0 0 1 -1485.5977 -2372.9414)">
		<stop  offset="0" style="stop-color:#A57723"/>
		<stop  offset="1" style="stop-color:#39220C"/>
	</linearGradient>
	<rect x="12.015" y="17.896" fill="url(#SVGID_7_)" width="1.391" height="8.185"/>
	
		<linearGradient id="SVGID_8_" gradientUnits="userSpaceOnUse" x1="1503.9395" y1="2397.0923" x2="1499.0996" y2="2392.7666" gradientTransform="matrix(1 0 0 1 -1485.5977 -2372.9414)">
		<stop  offset="0" style="stop-color:#A57723"/>
		<stop  offset="1" style="stop-color:#39220C"/>
	</linearGradient>
	<rect x="15.226" y="17.896" fill="url(#SVGID_8_)" width="1.391" height="8.185"/>
	
		<linearGradient id="SVGID_9_" gradientUnits="userSpaceOnUse" x1="1507.0176" y1="2397.0933" x2="1502.1771" y2="2392.7666" gradientTransform="matrix(1 0 0 1 -1485.5977 -2372.9414)">
		<stop  offset="0" style="stop-color:#A57723"/>
		<stop  offset="1" style="stop-color:#39220C"/>
	</linearGradient>
	<rect x="18.304" y="17.896" fill="url(#SVGID_9_)" width="1.391" height="8.185"/>
	
		<linearGradient id="SVGID_10_" gradientUnits="userSpaceOnUse" x1="1510.0938" y1="2397.0923" x2="1505.2549" y2="2392.7671" gradientTransform="matrix(1 0 0 1 -1485.5977 -2372.9414)">
		<stop  offset="0" style="stop-color:#A57723"/>
		<stop  offset="1" style="stop-color:#39220C"/>
	</linearGradient>
	<rect x="21.382" y="17.896" fill="url(#SVGID_10_)" width="1.39" height="8.185"/>
	
		<linearGradient id="SVGID_11_" gradientUnits="userSpaceOnUse" x1="1513.1709" y1="2397.0923" x2="1508.3312" y2="2392.7664" gradientTransform="matrix(1 0 0 1 -1485.5977 -2372.9414)">
		<stop  offset="0" style="stop-color:#A57723"/>
		<stop  offset="1" style="stop-color:#39220C"/>
	</linearGradient>
	<rect x="24.458" y="17.896" fill="url(#SVGID_11_)" width="1.391" height="8.185"/>
	
		<linearGradient id="SVGID_12_" gradientUnits="userSpaceOnUse" x1="1516.249" y1="2397.0923" x2="1511.4093" y2="2392.7666" gradientTransform="matrix(1 0 0 1 -1485.5977 -2372.9414)">
		<stop  offset="0" style="stop-color:#A57723"/>
		<stop  offset="1" style="stop-color:#39220C"/>
	</linearGradient>
	<rect x="27.535" y="17.896" fill="url(#SVGID_12_)" width="1.392" height="8.185"/>
	
		<linearGradient id="SVGID_13_" gradientUnits="userSpaceOnUse" x1="1519.3262" y1="2397.0923" x2="1514.4865" y2="2392.7664" gradientTransform="matrix(1 0 0 1 -1485.5977 -2372.9414)">
		<stop  offset="0" style="stop-color:#A57723"/>
		<stop  offset="1" style="stop-color:#39220C"/>
	</linearGradient>
	<rect x="30.613" y="17.896" fill="url(#SVGID_13_)" width="1.391" height="8.185"/>
	
		<linearGradient id="SVGID_14_" gradientUnits="userSpaceOnUse" x1="1522.4082" y1="2397.0933" x2="1517.5663" y2="2392.7654" gradientTransform="matrix(1 0 0 1 -1485.5977 -2372.9414)">
		<stop  offset="0" style="stop-color:#A57723"/>
		<stop  offset="1" style="stop-color:#39220C"/>
	</linearGradient>
	<rect x="33.691" y="17.896" fill="url(#SVGID_14_)" width="1.396" height="8.185"/>
</g>
<g>
	
		<linearGradient id="SVGID_15_" gradientUnits="userSpaceOnUse" x1="-1769.5254" y1="-2366.7583" x2="-1769.6509" y2="-2360.9351" gradientTransform="matrix(-1 0 0 -1 -1735.1816 -2341.7334)">
		<stop  offset="0" style="stop-color:#F7C0BE"/>
		<stop  offset="0.149" style="stop-color:#F9D3C8"/>
		<stop  offset="0.352" style="stop-color:#FBE5D2"/>
		<stop  offset="0.5597" style="stop-color:#FCF2D8"/>
		<stop  offset="0.7729" style="stop-color:#FCF9DC"/>
		<stop  offset="1" style="stop-color:#FCFBDD"/>
	</linearGradient>
	<rect x="33.691" y="21.989" opacity="0.49" fill="url(#SVGID_15_)" enable-background="new    " width="1.396" height="1.907"/>
	
		<linearGradient id="SVGID_16_" gradientUnits="userSpaceOnUse" x1="-1766.4453" y1="-2366.7573" x2="-1766.571" y2="-2360.9338" gradientTransform="matrix(-1 0 0 -1 -1735.1816 -2341.7334)">
		<stop  offset="0" style="stop-color:#F7C0BE"/>
		<stop  offset="0.149" style="stop-color:#F9D3C8"/>
		<stop  offset="0.352" style="stop-color:#FBE5D2"/>
		<stop  offset="0.5597" style="stop-color:#FCF2D8"/>
		<stop  offset="0.7729" style="stop-color:#FCF9DC"/>
		<stop  offset="1" style="stop-color:#FCFBDD"/>
	</linearGradient>
	<rect x="30.613" y="21.989" opacity="0.49" fill="url(#SVGID_16_)" enable-background="new    " width="1.391" height="1.907"/>
	
		<linearGradient id="SVGID_17_" gradientUnits="userSpaceOnUse" x1="-1763.3677" y1="-2366.7554" x2="-1763.4932" y2="-2360.9336" gradientTransform="matrix(-1 0 0 -1 -1735.1816 -2341.7334)">
		<stop  offset="0" style="stop-color:#F7C0BE"/>
		<stop  offset="0.149" style="stop-color:#F9D3C8"/>
		<stop  offset="0.352" style="stop-color:#FBE5D2"/>
		<stop  offset="0.5597" style="stop-color:#FCF2D8"/>
		<stop  offset="0.7729" style="stop-color:#FCF9DC"/>
		<stop  offset="1" style="stop-color:#FCFBDD"/>
	</linearGradient>
	<rect x="27.535" y="21.989" opacity="0.49" fill="url(#SVGID_17_)" enable-background="new    " width="1.392" height="1.907"/>
	
		<linearGradient id="SVGID_18_" gradientUnits="userSpaceOnUse" x1="-1760.2905" y1="-2366.7578" x2="-1760.4163" y2="-2360.9302" gradientTransform="matrix(-1 0 0 -1 -1735.1816 -2341.7334)">
		<stop  offset="0" style="stop-color:#F7C0BE"/>
		<stop  offset="0.149" style="stop-color:#F9D3C8"/>
		<stop  offset="0.352" style="stop-color:#FBE5D2"/>
		<stop  offset="0.5597" style="stop-color:#FCF2D8"/>
		<stop  offset="0.7729" style="stop-color:#FCF9DC"/>
		<stop  offset="1" style="stop-color:#FCFBDD"/>
	</linearGradient>
	<rect x="24.458" y="21.989" opacity="0.49" fill="url(#SVGID_18_)" enable-background="new    " width="1.391" height="1.907"/>
	
		<linearGradient id="SVGID_19_" gradientUnits="userSpaceOnUse" x1="-1757.2144" y1="-2366.7549" x2="-1757.3398" y2="-2360.9316" gradientTransform="matrix(-1 0 0 -1 -1735.1816 -2341.7334)">
		<stop  offset="0" style="stop-color:#F7C0BE"/>
		<stop  offset="0.149" style="stop-color:#F9D3C8"/>
		<stop  offset="0.352" style="stop-color:#FBE5D2"/>
		<stop  offset="0.5597" style="stop-color:#FCF2D8"/>
		<stop  offset="0.7729" style="stop-color:#FCF9DC"/>
		<stop  offset="1" style="stop-color:#FCFBDD"/>
	</linearGradient>
	<rect x="21.382" y="21.989" opacity="0.49" fill="url(#SVGID_19_)" enable-background="new    " width="1.392" height="1.907"/>
	
		<linearGradient id="SVGID_20_" gradientUnits="userSpaceOnUse" x1="-1754.1362" y1="-2366.7598" x2="-1754.262" y2="-2360.9319" gradientTransform="matrix(-1 0 0 -1 -1735.1816 -2341.7334)">
		<stop  offset="0" style="stop-color:#F7C0BE"/>
		<stop  offset="0.149" style="stop-color:#F9D3C8"/>
		<stop  offset="0.352" style="stop-color:#FBE5D2"/>
		<stop  offset="0.5597" style="stop-color:#FCF2D8"/>
		<stop  offset="0.7729" style="stop-color:#FCF9DC"/>
		<stop  offset="1" style="stop-color:#FCFBDD"/>
	</linearGradient>
	<rect x="18.304" y="21.989" opacity="0.49" fill="url(#SVGID_20_)" enable-background="new    " width="1.391" height="1.907"/>
	
		<linearGradient id="SVGID_21_" gradientUnits="userSpaceOnUse" x1="-1751.0581" y1="-2366.7583" x2="-1751.1838" y2="-2360.9319" gradientTransform="matrix(-1 0 0 -1 -1735.1816 -2341.7334)">
		<stop  offset="0" style="stop-color:#F7C0BE"/>
		<stop  offset="0.149" style="stop-color:#F9D3C8"/>
		<stop  offset="0.352" style="stop-color:#FBE5D2"/>
		<stop  offset="0.5597" style="stop-color:#FCF2D8"/>
		<stop  offset="0.7729" style="stop-color:#FCF9DC"/>
		<stop  offset="1" style="stop-color:#FCFBDD"/>
	</linearGradient>
	<rect x="15.226" y="21.989" opacity="0.49" fill="url(#SVGID_21_)" enable-background="new    " width="1.391" height="1.907"/>
	
		<linearGradient id="SVGID_22_" gradientUnits="userSpaceOnUse" x1="-1747.8232" y1="-2366.7632" x2="-1747.9491" y2="-2360.9307" gradientTransform="matrix(-1 0 0 -1 -1735.1816 -2341.7334)">
		<stop  offset="0" style="stop-color:#F7C0BE"/>
		<stop  offset="0.149" style="stop-color:#F9D3C8"/>
		<stop  offset="0.352" style="stop-color:#FBE5D2"/>
		<stop  offset="0.5597" style="stop-color:#FCF2D8"/>
		<stop  offset="0.7729" style="stop-color:#FCF9DC"/>
		<stop  offset="1" style="stop-color:#FCFBDD"/>
	</linearGradient>
	<rect x="11.992" y="21.989" opacity="0.49" fill="url(#SVGID_22_)" enable-background="new    " width="1.39" height="1.907"/>
</g>
<radialGradient id="SVGID_23_" cx="-1702.9927" cy="-2280.7319" r="2.9758" gradientTransform="matrix(-1.0258 0 0 -1.029 -1737.8411 -2340.8428)" gradientUnits="userSpaceOnUse">
	<stop  offset="0" style="stop-color:#FFFFFF"/>
	<stop  offset="0.0826" style="stop-color:#F5F9EB"/>
	<stop  offset="0.2621" style="stop-color:#D9E8AF"/>
	<stop  offset="0.5229" style="stop-color:#A7CD44"/>
	<stop  offset="0.5636" style="stop-color:#9EC931"/>
	<stop  offset="0.6963" style="stop-color:#9CC82F"/>
	<stop  offset="0.744" style="stop-color:#94C628"/>
	<stop  offset="0.7455" style="stop-color:#94C528"/>
	<stop  offset="0.9273" style="stop-color:#599839"/>
	<stop  offset="1" style="stop-color:#3E6E44"/>
</radialGradient>
<path fill="url(#SVGID_23_)" d="M5.365,6.031c0-0.603,0.043-1.23,0.438-1.626c0.395-0.396,0.962-0.563,1.743-0.563h3.085
	c0.778-0.004,1.278,0.076,1.67,0.451c0.417,0.398,0.513,1.114,0.513,1.736l0,0c0,0.604-0.118,1.145-0.513,1.541
	c-0.395,0.397-0.65,0.649-1.67,0.649H7.078c-0.666,0-1.021-0.221-1.419-0.691C5.334,7.148,5.365,6.573,5.365,6.031L5.365,6.031z"/>
<radialGradient id="SVGID_24_" cx="698.6348" cy="-1125.5493" r="3.0289" gradientTransform="matrix(1.0014 0 0 -1.0217 -662.0866 -1143.8953)" gradientUnits="userSpaceOnUse">
	<stop  offset="0" style="stop-color:#AF813C"/>
	<stop  offset="1" style="stop-color:#27250E"/>
</radialGradient>
<path fill="url(#SVGID_24_)" d="M41.216,6.065c0,0.608-0.045,1.239-0.435,1.638c-0.394,0.399-0.955,0.567-1.729,0.567h-3.058
	c-0.771,0.003-1.268-0.077-1.655-0.455c-0.414-0.401-0.508-1.123-0.508-1.75l0,0c0-0.61,0.063-1.255,0.45-1.655
	c0.394-0.399,0.701-0.552,1.713-0.552h3.521c0.658,0,1.108,0.156,1.502,0.632C41.343,4.876,41.216,5.52,41.216,6.065L41.216,6.065z"
	/>
<radialGradient id="SVGID_25_" cx="-1730.7319" cy="-2280.7319" r="2.9764" gradientTransform="matrix(-1.0258 0 0 -1.029 -1737.8411 -2340.8428)" gradientUnits="userSpaceOnUse">
	<stop  offset="0" style="stop-color:#FFFFFF"/>
	<stop  offset="0.0915" style="stop-color:#FEF8E9"/>
	<stop  offset="0.2902" style="stop-color:#F7E2A7"/>
	<stop  offset="0.5636" style="stop-color:#EDC338"/>
	<stop  offset="0.7097" style="stop-color:#EDC136"/>
	<stop  offset="0.7455" style="stop-color:#EDBF30"/>
	<stop  offset="0.9273" style="stop-color:#F0943C"/>
	<stop  offset="1" style="stop-color:#B87544"/>
</radialGradient>
<path fill="url(#SVGID_25_)" d="M33.818,6.031c0-0.603,0.043-1.23,0.438-1.626C34.652,4.009,35.22,3.842,36,3.842h3.085
	c0.778-0.004,1.278,0.076,1.67,0.451c0.418,0.398,0.515,1.114,0.515,1.736l0,0c0,0.604-0.119,1.145-0.515,1.541
	c-0.396,0.397-0.649,0.649-1.67,0.649h-3.554c-0.666,0-1.021-0.221-1.42-0.691C33.787,7.148,33.818,6.573,33.818,6.031L33.818,6.031
	z">
<animate  fill="remove" to="block" dur="0.5s" restart="always" from="none" calcMode="linear" additive="replace" accumulate="none" repeatCount="indefinite" attributeName="display" attributeType="XML">
		</animate>
</path>
<g id="图层_12_x5F_复制_x5F_3" display="none">
	
		<radialGradient id="SVGID_26_" cx="1496.291" cy="2407.2271" r="2.9761" gradientTransform="matrix(1 0 0 1 -1485.5977 -2372.9414)" gradientUnits="userSpaceOnUse">
		<stop  offset="0" style="stop-color:#B0823C"/>
		<stop  offset="1" style="stop-color:#28250E"/>
	</radialGradient>
	<path display="inline" fill="url(#SVGID_26_)" d="M14.324,34.286c0,0.586-0.042,1.194-0.427,1.58
		c-0.385,0.385-0.938,0.547-1.699,0.547H9.19c-0.759,0.004-1.246-0.074-1.628-0.438c-0.407-0.392-0.5-1.084-0.5-1.688l0,0
		c0-0.588,0.115-1.111,0.5-1.496c0.385-0.388,0.634-0.631,1.628-0.631h3.464c0.649,0,0.995,0.213,1.384,0.672
		C14.354,33.202,14.324,33.76,14.324,34.286L14.324,34.286z"/>
</g>
<g id="图层_12_x5F_复制_x5F_2" display="none">
	
		<radialGradient id="SVGID_27_" cx="699.918" cy="-1134.0698" r="3.0287" gradientTransform="matrix(1.0014 0 0 -1.0217 -662.0866 -1143.8953)" gradientUnits="userSpaceOnUse">
		<stop  offset="0" style="stop-color:#AF813C"/>
		<stop  offset="1" style="stop-color:#27250E"/>
	</radialGradient>
	<path display="inline" fill="url(#SVGID_27_)" d="M41.814,34.286c0,0.586-0.041,1.194-0.426,1.58
		c-0.391,0.385-0.938,0.547-1.699,0.547h-3.008c-0.765,0.004-1.246-0.074-1.629-0.438c-0.406-0.392-0.5-1.084-0.5-1.688l0,0
		c0-0.588,0.11-1.111,0.5-1.496c0.385-0.388,0.635-0.631,1.629-0.631h3.463c0.646,0,0.996,0.213,1.385,0.672
		C41.846,33.202,41.814,33.76,41.814,34.286L41.814,34.286z"/>
</g>
<g id="图层_12_x5F_复制">
</g>
<g id="图层_14">
</g>
</svg>
